<svg width="24" height="24" viewBox="0 0 24 24" fill="none" xmlns="http://www.w3.org/2000/svg">
<path d="M22.2084 6.43374H17.6234L18.0574 1.44974C18.0994 0.969073 17.7424 0.545577 17.2617 0.502411C16.7752 0.467411 16.3564 0.817409 16.3144 1.29924L15.8675 6.43257H8.49421L8.92587 1.4509C8.96904 0.969064 8.61087 0.545577 8.13254 0.502411C7.64254 0.467411 7.22604 0.817409 7.18404 1.29924L6.73837 6.43257H2.1207C1.6377 6.43257 1.2457 6.82574 1.2457 7.30757C1.2457 7.7894 1.6377 8.18257 2.1207 8.18257H6.58671L5.94504 15.5641H1.20837C0.725374 15.5641 0.333374 15.9561 0.333374 16.4391C0.333374 16.9221 0.725374 17.3141 1.20837 17.3141H5.79337L5.35937 22.2981C5.31737 22.7787 5.67437 23.2022 6.15504 23.2454L6.23204 23.2489C6.68121 23.2489 7.06271 22.9047 7.10238 22.4486L7.5492 17.3152H14.9225L14.4909 22.2969C14.4489 22.7787 14.8059 23.2022 15.2865 23.2454L15.3635 23.2489C15.8127 23.2489 16.1942 22.9047 16.2339 22.4486L16.6795 17.3152H21.296C21.7779 17.3152 22.171 16.9221 22.171 16.4402C22.171 15.9584 21.7779 15.5652 21.296 15.5652H16.83L17.4717 8.18374H22.2084C22.6914 8.18374 23.0834 7.79174 23.0834 7.30874C23.0834 6.82574 22.6914 6.43374 22.2084 6.43374ZM15.0742 15.5641H7.70088L8.34254 8.18374H15.7159L15.0742 15.5641Z" fill="black"/>
</svg>
