<svg width="24" height="22" viewBox="0 0 24 22" fill="none" xmlns="http://www.w3.org/2000/svg">
<path d="M20.4584 0.5H3.54171C1.77187 0.5 0.333374 1.93967 0.333374 3.71067V18.2882C0.333374 20.0592 1.77187 21.5 3.54171 21.5H20.4584C22.2282 21.5 23.6667 20.0592 23.6667 18.2882V3.71067C23.6667 1.93967 22.2282 0.5 20.4584 0.5ZM3.54171 2.25H20.4584C21.2634 2.25 21.9167 2.90333 21.9167 3.70833V4.54132L12.525 10.8028C12.2065 11.0128 11.7947 11.0152 11.475 10.8005L2.08337 4.54132V3.70833C2.08337 2.90333 2.73671 2.25 3.54171 2.25ZM20.4584 19.7477H3.54171C2.73671 19.7477 2.08337 19.0943 2.08337 18.2893V6.59233L10.53 12.2273C10.9769 12.526 11.489 12.6753 12 12.6753C12.5134 12.6753 13.0232 12.526 13.47 12.2285L21.9167 6.59349V18.2858C21.9167 19.0908 21.2634 19.7442 20.4584 19.7442V19.7477Z" fill="black"/>
</svg>
