<svg width="26" height="26" viewBox="0 0 26 26" fill="none" xmlns="http://www.w3.org/2000/svg">
<path d="M17.9583 10.6667C16.8325 10.6667 15.9166 11.5848 15.9166 12.7083C15.9166 13.8318 16.8313 14.75 17.9583 14.75C19.083 14.75 20 13.833 20 12.7083C20 11.5837 19.083 10.6667 17.9583 10.6667ZM17.9583 13.5833C17.4753 13.5833 17.0833 13.1913 17.0833 12.7083C17.0833 12.2265 17.4765 11.8333 17.9583 11.8333C18.4401 11.8333 18.8333 12.2253 18.8333 12.7083C18.8333 13.1902 18.4413 13.5833 17.9583 13.5833ZM12.7083 10.6667C11.5813 10.6667 10.6666 11.5848 10.6666 12.7083C10.6666 13.8318 11.5825 14.75 12.7083 14.75C13.8341 14.75 14.75 13.833 14.75 12.7083C14.75 11.5837 13.8353 10.6667 12.7083 10.6667ZM12.7083 13.5833C12.2253 13.5833 11.8333 13.1913 11.8333 12.7083C11.8333 12.2265 12.2265 11.8333 12.7083 11.8333C13.1901 11.8333 13.5833 12.2253 13.5833 12.7083C13.5833 13.1902 13.1913 13.5833 12.7083 13.5833ZM7.45829 10.6667C6.33246 10.6667 5.41663 11.5848 5.41663 12.7083C5.41663 13.8318 6.33246 14.75 7.45829 14.75C8.58296 14.75 9.49996 13.833 9.49996 12.7083C9.49996 11.5837 8.58179 10.6667 7.45829 10.6667ZM7.45829 13.5833C6.97529 13.5833 6.58329 13.1913 6.58329 12.7083C6.58329 12.2265 6.97646 11.8333 7.45829 11.8333C7.94013 11.8333 8.33329 12.2253 8.33329 12.7083C8.33329 13.1902 7.94129 13.5833 7.45829 13.5833Z" fill="black"/>
<path d="M12.7083 25.25C5.79229 25.25 0.166626 19.6243 0.166626 12.7083C0.166626 5.79232 5.79229 0.166656 12.7083 0.166656C19.6243 0.166656 25.25 5.79232 25.25 12.7083C25.25 19.6243 19.6243 25.25 12.7083 25.25ZM12.7083 1.91666C6.75829 1.91666 1.91663 6.75832 1.91663 12.7083C1.91663 18.6583 6.75829 23.5 12.7083 23.5C18.6583 23.5 23.5 18.6583 23.5 12.7083C23.5 6.75832 18.6583 1.91666 12.7083 1.91666Z" fill="black"/>
</svg>
