<svg width="24" height="24" viewBox="0 0 24 24" fill="none" xmlns="http://www.w3.org/2000/svg">
<path d="M23.3141 17.2943C23.2908 17.2757 20.8174 15.381 20.8606 10.2593C20.8839 7.30533 19.9133 4.68032 18.1224 2.86848C16.5183 1.24332 14.3459 0.34498 12.0068 0.333313H11.9916C9.65361 0.34498 7.48127 1.24333 5.87593 2.86966C4.08627 4.68149 3.11328 7.30533 3.13894 10.2593C3.18211 15.311 0.78227 17.2208 0.686603 17.2943C0.38327 17.5195 0.259604 17.9127 0.377437 18.272C0.496437 18.6313 0.832426 18.8728 1.20809 18.8728H6.94811C7.06711 21.5678 9.27793 23.7262 11.9998 23.7262C14.7216 23.7262 16.9301 21.5678 17.0479 18.8728H22.7903C23.1659 18.8728 23.5019 18.6325 23.6186 18.2732C23.7388 17.915 23.6151 17.5206 23.3118 17.2955L23.3141 17.2943ZM12.0009 21.9727C10.2451 21.9727 8.81593 20.5995 8.7016 18.8717H15.3003C15.1836 20.5983 13.7568 21.975 12.0009 21.975V21.9727ZM3.11094 17.1217C3.97427 15.801 4.91694 13.589 4.88894 10.243C4.86794 7.72298 5.64027 5.59732 7.12077 4.09815C8.39594 2.80665 10.1308 2.09148 12.0009 2.08331C13.8711 2.09265 15.6024 2.80666 16.8776 4.09933C18.3593 5.59849 19.1328 7.72299 19.1118 10.2442C19.0838 13.5902 20.0276 15.8033 20.8909 17.1228H3.11094V17.1217Z" fill="black"/>
</svg>
